<svg class="main-svg" xmlns="http://www.w3.org/2000/svg" xmlns:xlink="http://www.w3.org/1999/xlink" width="1000" height="800" style="" viewBox="0 0 1000 800"><rect x="0" y="0" width="1000" height="800" style="fill: rgb(255, 255, 255); fill-opacity: 1;"/><defs id="defs-27a1b6"><g class="clips"/><g class="gradients"/><g class="patterns"/></defs><g class="bglayer"/><g class="layer-below"><g class="imagelayer"/><g class="shapelayer"/></g><g class="cartesianlayer"/><g class="polarlayer"/><g class="smithlayer"/><g class="ternarylayer"/><g class="geolayer"/><g class="funnelarealayer"/><g class="pielayer"/><g class="iciclelayer"/><g class="treemaplayer"/><g class="sunburstlayer"/><g class="glimages"/><g class="parcatslayer" style="pointer-events: none;"><g class="trace parcats" transform="translate(80,100)"><g class="paths"><path class="path" stroke-opacity="1" fill="#636efa" fill-opacity="0.6" stroke="lightgray" stroke-width="0.2" d="M 40,136l16,0 C56,136 784,0 784,0l16,0 l0,7.740078499781945 l -16,0 C784,7.740078499781945 56,143.74007849978196 56,143.74007849978196l-16,0 Z"/><path class="path" stroke-opacity="1" fill="#636efa" fill-opacity="0.6" stroke="lightgray" stroke-width="0.2" d="M 40,143.74007849978196l16,0 C56,143.74007849978196 784,15.740078499781944 784,15.740078499781944l16,0 l0,270.7509812472743 l -16,0 C784,286.4910597470562 56,414.4910597470563 56,414.4910597470563l-16,0 Z"/><path class="path" stroke-opacity="1" fill="#636efa" fill-opacity="0.6" stroke="lightgray" stroke-width="0.2" d="M 40,414.4910597470563l16,0 C56,414.4910597470563 784,409.1809856083733 784,409.1809856083733l16,0 l0,2.883558656781509 l -16,0 C784,412.06454426515484 56,417.3746184038378 56,417.3746184038378l-16,0 Z"/><path class="path" stroke-opacity="1" fill="#636efa" fill-opacity="0.6" stroke="lightgray" stroke-width="0.2" d="M 40,417.3746184038378l16,0 C56,417.3746184038378 784,420.06454426515484 784,420.06454426515484l16,0 l0,0.15176624509376363 l -16,0 C784,420.2163105102486 56,417.5263846489316 56,417.5263846489316l-16,0 Z"/><path class="path" stroke-opacity="1" fill="#636efa" fill-opacity="0.6" stroke="lightgray" stroke-width="0.2" d="M 40,417.5263846489316l16,0 C56,417.5263846489316 784,428.2163105102486 784,428.2163105102486l16,0 l0,3.187091146969036 l -16,0 C784,431.4034016572176 56,420.7134757959006 56,420.7134757959006l-16,0 Z"/><path class="path" stroke-opacity="1" fill="#636efa" fill-opacity="0.6" stroke="lightgray" stroke-width="0.2" d="M 40,420.7134757959006l16,0 C56,420.7134757959006 784,439.4034016572176 784,439.4034016572176l16,0 l0,1.5176624509376362 l -16,0 C784,440.92106410815524 56,422.2311382468382 56,422.2311382468382l-16,0 Z"/><path class="path" stroke-opacity="1" fill="#636efa" fill-opacity="0.6" stroke="lightgray" stroke-width="0.2" d="M 40,422.2311382468382l16,0 C56,422.2311382468382 784,448.92106410815524 784,448.92106410815524l16,0 l0,0.30353249018752726 l -16,0 C784,449.22459659834277 56,422.53467073702575 56,422.53467073702575l-16,0 Z"/><path class="path" stroke-opacity="1" fill="#636efa" fill-opacity="0.6" stroke="lightgray" stroke-width="0.2" d="M 40,422.53467073702575l16,0 C56,422.53467073702575 784,457.22459659834277 784,457.22459659834277l16,0 l0,1.5176624509376362 l -16,0 C784,458.7422590492804 56,424.05233318796337 56,424.05233318796337l-16,0 Z"/><path class="path" stroke-opacity="1" fill="#636efa" fill-opacity="0.6" stroke="lightgray" stroke-width="0.2" d="M 40,424.05233318796337l16,0 C56,424.05233318796337 784,466.7422590492804 784,466.7422590492804l16,0 l0,1.9729611862189271 l -16,0 C784,468.7152202354993 56,426.0252943741823 56,426.0252943741823l-16,0 Z"/><path class="path" stroke-opacity="1" fill="#636efa" fill-opacity="0.6" stroke="lightgray" stroke-width="0.2" d="M 40,426.0252943741823l16,0 C56,426.0252943741823 784,476.7152202354993 784,476.7152202354993l16,0 l0,0.7588312254688181 l -16,0 C784,477.47405146096816 56,426.78412559965113 56,426.78412559965113l-16,0 Z"/><path class="path" stroke-opacity="1" fill="#636efa" fill-opacity="0.6" stroke="lightgray" stroke-width="0.2" d="M 40,426.78412559965113l16,0 C56,426.78412559965113 784,485.47405146096816 784,485.47405146096816l16,0 l0,1.3658962058438726 l -16,0 C784,486.839947666812 56,428.150021805495 56,428.150021805495l-16,0 Z"/><path class="path" stroke-opacity="1" fill="#636efa" fill-opacity="0.6" stroke="lightgray" stroke-width="0.2" d="M 40,428.150021805495l16,0 C56,428.150021805495 784,494.839947666812 784,494.839947666812l16,0 l0,0.15176624509376363 l -16,0 C784,494.9917139119058 56,428.30178805058875 56,428.30178805058875l-16,0 Z"/><path class="path" stroke-opacity="1" fill="#636efa" fill-opacity="0.6" stroke="lightgray" stroke-width="0.2" d="M 40,428.30178805058875l16,0 C56,428.30178805058875 784,294.4910597470562 784,294.4910597470562l16,0 l0,25.49672917575229 l -16,0 C784,319.98778892280853 56,453.79851722634106 56,453.79851722634106l-16,0 Z"/><path class="path" stroke-opacity="1" fill="#636efa" fill-opacity="0.6" stroke="lightgray" stroke-width="0.2" d="M 40,453.79851722634106l16,0 C56,453.79851722634106 784,502.9917139119058 784,502.9917139119058l16,0 l0,0.30353249018752726 l -16,0 C784,503.2952464020933 56,454.1020497165286 56,454.1020497165286l-16,0 Z"/><path class="path" stroke-opacity="1" fill="#636efa" fill-opacity="0.6" stroke="lightgray" stroke-width="0.2" d="M 40,454.1020497165286l16,0 C56,454.1020497165286 784,511.2952464020933 784,511.2952464020933l16,0 l0,0.15176624509376363 l -16,0 C784,511.4470126471871 56,454.25381596162237 56,454.25381596162237l-16,0 Z"/><path class="path" stroke-opacity="1" fill="#636efa" fill-opacity="0.6" stroke="lightgray" stroke-width="0.2" d="M 40,454.25381596162237l16,0 C56,454.25381596162237 784,519.4470126471871 784,519.4470126471871l16,0 l0,0.4552987352812909 l -16,0 C784,519.9023113824684 56,454.70911469690367 56,454.70911469690367l-16,0 Z"/><path class="path" stroke-opacity="1" fill="#636efa" fill-opacity="0.6" stroke="lightgray" stroke-width="0.2" d="M 40,454.70911469690367l16,0 C56,454.70911469690367 784,527.9023113824684 784,527.9023113824684l16,0 l0,0.9105974705625818 l -16,0 C784,528.812908853031 56,455.6197121674663 56,455.6197121674663l-16,0 Z"/><path class="path" stroke-opacity="1" fill="#636efa" fill-opacity="0.6" stroke="lightgray" stroke-width="0.2" d="M 40,455.6197121674663l16,0 C56,455.6197121674663 784,536.812908853031 784,536.812908853031l16,0 l0,0.30353249018752726 l -16,0 C784,537.1164413432185 56,455.9232446576538 56,455.9232446576538l-16,0 Z"/><path class="path" stroke-opacity="1" fill="#636efa" fill-opacity="0.6" stroke="lightgray" stroke-width="0.2" d="M 40,455.9232446576538l16,0 C56,455.9232446576538 784,545.1164413432185 784,545.1164413432185l16,0 l0,0.15176624509376363 l -16,0 C784,545.2682075883123 56,456.0750109027476 56,456.0750109027476l-16,0 Z"/><path class="path" stroke-opacity="1" fill="#636efa" fill-opacity="0.6" stroke="lightgray" stroke-width="0.2" d="M 40,456.0750109027476l16,0 C56,456.0750109027476 784,553.2682075883123 784,553.2682075883123l16,0 l0,0.4552987352812909 l -16,0 C784,553.7235063235936 56,456.5303096380289 56,456.5303096380289l-16,0 Z"/><path class="path" stroke-opacity="1" fill="#636efa" fill-opacity="0.6" stroke="lightgray" stroke-width="0.2" d="M 40,456.5303096380289l16,0 C56,456.5303096380289 784,561.7235063235936 784,561.7235063235936l16,0 l0,0.15176624509376363 l -16,0 C784,561.8752725686874 56,456.68207588312265 56,456.68207588312265l-16,0 Z"/><path class="path" stroke-opacity="1" fill="#636efa" fill-opacity="0.6" stroke="lightgray" stroke-width="0.2" d="M 40,456.68207588312265l16,0 C56,456.68207588312265 784,569.8752725686874 784,569.8752725686874l16,0 l0,0.15176624509376363 l -16,0 C784,570.0270388137811 56,456.8338421282164 56,456.8338421282164l-16,0 Z"/><path class="path" stroke-opacity="1" fill="#636efa" fill-opacity="0.6" stroke="lightgray" stroke-width="0.2" d="M 40,456.8338421282164l16,0 C56,456.8338421282164 784,578.0270388137811 784,578.0270388137811l16,0 l0,0.15176624509376363 l -16,0 C784,578.1788050588749 56,456.9856083733102 56,456.9856083733102l-16,0 Z"/><path class="path" stroke-opacity="1" fill="#636efa" fill-opacity="0.6" stroke="lightgray" stroke-width="0.2" d="M 40,456.9856083733102l16,0 C56,456.9856083733102 784,327.98778892280853 784,327.98778892280853l16,0 l0,8.498909725250762 l -16,0 C784,336.4866986480593 56,465.48451809856095 56,465.48451809856095l-16,0 Z"/><path class="path" stroke-opacity="1" fill="#636efa" fill-opacity="0.6" stroke="lightgray" stroke-width="0.2" d="M 40,465.48451809856095l16,0 C56,465.48451809856095 784,586.1788050588749 784,586.1788050588749l16,0 l0,0.4552987352812909 l -16,0 C784,586.6341037941562 56,465.93981683384226 56,465.93981683384226l-16,0 Z"/><path class="path" stroke-opacity="1" fill="#636efa" fill-opacity="0.6" stroke="lightgray" stroke-width="0.2" d="M 40,465.93981683384226l16,0 C56,465.93981683384226 784,594.6341037941562 784,594.6341037941562l16,0 l0,0.9105974705625818 l -16,0 C784,595.5447012647188 56,466.85041430440486 56,466.85041430440486l-16,0 Z"/><path class="path" stroke-opacity="1" fill="#636efa" fill-opacity="0.6" stroke="lightgray" stroke-width="0.2" d="M 40,466.85041430440486l16,0 C56,466.85041430440486 784,603.5447012647188 784,603.5447012647188l16,0 l0,0.15176624509376363 l -16,0 C784,603.6964675098126 56,467.00218054949863 56,467.00218054949863l-16,0 Z"/><path class="path" stroke-opacity="1" fill="#636efa" fill-opacity="0.6" stroke="lightgray" stroke-width="0.2" d="M 40,467.00218054949863l16,0 C56,467.00218054949863 784,611.6964675098126 784,611.6964675098126l16,0 l0,0.15176624509376363 l -16,0 C784,611.8482337549063 56,467.1539467945924 56,467.1539467945924l-16,0 Z"/><path class="path" stroke-opacity="1" fill="#636efa" fill-opacity="0.6" stroke="lightgray" stroke-width="0.2" d="M 40,467.1539467945924l16,0 C56,467.1539467945924 784,619.8482337549063 784,619.8482337549063l16,0 l0,0.15176624509376363 l -16,0 C784,620.0000000000001 56,467.30571303968617 56,467.30571303968617l-16,0 Z"/><path class="path" stroke-opacity="1" fill="#636efa" fill-opacity="0.6" stroke="lightgray" stroke-width="0.2" d="M 40,467.30571303968617l16,0 C56,467.30571303968617 784,344.4866986480593 784,344.4866986480593l16,0 l0,0.30353249018752726 l -16,0 C784,344.79023113824684 56,467.6092455298737 56,467.6092455298737l-16,0 Z"/><path class="path" stroke-opacity="1" fill="#636efa" fill-opacity="0.6" stroke="lightgray" stroke-width="0.2" d="M 40,467.6092455298737l16,0 C56,467.6092455298737 784,352.79023113824684 784,352.79023113824684l16,0 l0,6.6777147841256 l -16,0 C784,359.46794592237245 56,474.2869603139993 56,474.2869603139993l-16,0 Z"/><path class="path" stroke-opacity="1" fill="#636efa" fill-opacity="0.6" stroke="lightgray" stroke-width="0.2" d="M 40,474.2869603139993l16,0 C56,474.2869603139993 784,367.46794592237245 784,367.46794592237245l16,0 l0,0.30353249018752726 l -16,0 C784,367.77147841256 56,474.59049280418685 56,474.59049280418685l-16,0 Z"/><path class="path" stroke-opacity="1" fill="#636efa" fill-opacity="0.6" stroke="lightgray" stroke-width="0.2" d="M 40,474.59049280418685l16,0 C56,474.59049280418685 784,375.77147841256 784,375.77147841256l16,0 l0,3.642389882250327 l -16,0 C784,379.4138682948103 56,478.23288268643716 56,478.23288268643716l-16,0 Z"/><path class="path" stroke-opacity="1" fill="#636efa" fill-opacity="0.6" stroke="lightgray" stroke-width="0.2" d="M 40,478.23288268643716l16,0 C56,478.23288268643716 784,387.4138682948103 784,387.4138682948103l16,0 l0,3.187091146969036 l -16,0 C784,390.6009594417793 56,481.4199738334062 56,481.4199738334062l-16,0 Z"/><path class="path" stroke-opacity="1" fill="#636efa" fill-opacity="0.6" stroke="lightgray" stroke-width="0.2" d="M 40,481.4199738334062l16,0 C56,481.4199738334062 784,398.6009594417793 784,398.6009594417793l16,0 l0,2.580026166593982 l -16,0 C784,401.1809856083733 56,484.00000000000017 56,484.00000000000017l-16,0 Z"/></g><g class="dimensions"><g class="dimension" transform="translate(40,0)"><g class="category" transform="translate(0,136)"><rect class="catrect" pointer-events="none" fill="none" width="16" height="348" stroke="black" stroke-width="1" stroke-opacity="1"/><rect class="bandrect" stroke-opacity="1" fill="#636efa" fill-opacity="1" width="16" height="348.0000000000001" y="0" cursor="ns-resize" stroke="black" stroke-width="0.2"/><text class="catlabel" pointer-events="none" text-anchor="end" alignment-baseline="middle" x="-5" y="174" style="text-shadow: white 1px 1px 1px, white -1px -1px 1px, white 1px -1px 1px, white -1px 1px 1px; fill: rgb(42, 63, 95); font-family: 'Open Sans', verdana, arial, sans-serif; font-size: 10px; fill-opacity: 1; white-space: pre;">turn-on</text><text class="dimlabel" text-anchor="middle" alignment-baseline="baseline" cursor="ew-resize" x="8" y="-5" style="font-family: 'Open Sans', verdana, arial, sans-serif; font-size: 12px; fill: rgb(42, 63, 95); fill-opacity: 1;">Verb</text></g></g><g class="dimension" transform="translate(784,0)"><g class="category" transform=""><rect class="catrect" pointer-events="none" fill="none" width="16" height="7.740078499781945" stroke="black" stroke-width="1" stroke-opacity="1"/><rect class="bandrect" stroke-opacity="1" fill="#636efa" fill-opacity="1" width="16" height="7.740078499781945" y="0" cursor="ns-resize" stroke="black" stroke-width="0.2"/><text class="catlabel" pointer-events="none" text-anchor="start" alignment-baseline="middle" x="21" y="3.8700392498909726" style="text-shadow: white 1px 1px 1px, white -1px -1px 1px, white 1px -1px 1px, white -1px 1px 1px; fill: rgb(42, 63, 95); font-family: 'Open Sans', verdana, arial, sans-serif; font-size: 10px; fill-opacity: 1; white-space: pre;">light</text><text class="dimlabel" text-anchor="middle" alignment-baseline="baseline" cursor="ew-resize" x="8" y="-5" style="font-family: 'Open Sans', verdana, arial, sans-serif; font-size: 12px; fill: rgb(42, 63, 95); fill-opacity: 1;">Noun</text></g><g class="category" transform="translate(0,15.740078499781944)"><rect class="catrect" pointer-events="none" fill="none" width="16" height="270.7509812472743" stroke="black" stroke-width="1" stroke-opacity="1"/><rect class="bandrect" stroke-opacity="1" fill="#636efa" fill-opacity="1" width="16" height="270.7509812472743" y="0" cursor="ns-resize" stroke="black" stroke-width="0.2"/><text class="catlabel" pointer-events="none" text-anchor="start" alignment-baseline="middle" x="21" y="135.37549062363715" style="text-shadow: white 1px 1px 1px, white -1px -1px 1px, white 1px -1px 1px, white -1px 1px 1px; fill: rgb(42, 63, 95); font-family: 'Open Sans', verdana, arial, sans-serif; font-size: 10px; fill-opacity: 1; white-space: pre;">tap</text><text class="dimlabel" text-anchor="middle" alignment-baseline="baseline" cursor="ew-resize" x="8" y="-5" style="font-family: 'Open Sans', verdana, arial, sans-serif; font-size: 12px; fill: rgb(42, 63, 95); fill-opacity: 1;"/></g><g class="category" transform="translate(0,294.4910597470562)"><rect class="catrect" pointer-events="none" fill="none" width="16" height="25.49672917575229" stroke="black" stroke-width="1" stroke-opacity="1"/><rect class="bandrect" stroke-opacity="1" fill="#636efa" fill-opacity="1" width="16" height="25.49672917575229" y="0" cursor="ns-resize" stroke="black" stroke-width="0.2"/><text class="catlabel" pointer-events="none" text-anchor="start" alignment-baseline="middle" x="21" y="12.748364587876145" style="text-shadow: white 1px 1px 1px, white -1px -1px 1px, white 1px -1px 1px, white -1px 1px 1px; fill: rgb(42, 63, 95); font-family: 'Open Sans', verdana, arial, sans-serif; font-size: 10px; fill-opacity: 1; white-space: pre;">hob</text><text class="dimlabel" text-anchor="middle" alignment-baseline="baseline" cursor="ew-resize" x="8" y="-5" style="font-family: 'Open Sans', verdana, arial, sans-serif; font-size: 12px; fill: rgb(42, 63, 95); fill-opacity: 1;"/></g><g class="category" transform="translate(0,327.98778892280853)"><rect class="catrect" pointer-events="none" fill="none" width="16" height="8.498909725250762" stroke="black" stroke-width="1" stroke-opacity="1"/><rect class="bandrect" stroke-opacity="1" fill="#636efa" fill-opacity="1" width="16" height="8.498909725250762" y="0" cursor="ns-resize" stroke="black" stroke-width="0.2"/><text class="catlabel" pointer-events="none" text-anchor="start" alignment-baseline="middle" x="21" y="4.249454862625381" style="text-shadow: white 1px 1px 1px, white -1px -1px 1px, white 1px -1px 1px, white -1px 1px 1px; fill: rgb(42, 63, 95); font-family: 'Open Sans', verdana, arial, sans-serif; font-size: 10px; fill-opacity: 1; white-space: pre;">kettle</text><text class="dimlabel" text-anchor="middle" alignment-baseline="baseline" cursor="ew-resize" x="8" y="-5" style="font-family: 'Open Sans', verdana, arial, sans-serif; font-size: 12px; fill: rgb(42, 63, 95); fill-opacity: 1;"/></g><g class="category" transform="translate(0,344.4866986480593)"><rect class="catrect" pointer-events="none" fill="none" width="16" height="0.30353249018752726" stroke="black" stroke-width="1" stroke-opacity="1"/><rect class="bandrect" stroke-opacity="1" fill="#636efa" fill-opacity="1" width="16" height="0.30353249018752726" y="0" cursor="ns-resize" stroke="black" stroke-width="0.2"/><text class="catlabel" pointer-events="none" text-anchor="start" alignment-baseline="middle" x="21" y="0.15176624509376363" style="text-shadow: white 1px 1px 1px, white -1px -1px 1px, white 1px -1px 1px, white -1px 1px 1px; fill: rgb(42, 63, 95); font-family: 'Open Sans', verdana, arial, sans-serif; font-size: 10px; fill-opacity: 1; white-space: pre;">candle</text><text class="dimlabel" text-anchor="middle" alignment-baseline="baseline" cursor="ew-resize" x="8" y="-5" style="font-family: 'Open Sans', verdana, arial, sans-serif; font-size: 12px; fill: rgb(42, 63, 95); fill-opacity: 1;"/></g><g class="category" transform="translate(0,352.79023113824684)"><rect class="catrect" pointer-events="none" fill="none" width="16" height="6.6777147841256" stroke="black" stroke-width="1" stroke-opacity="1"/><rect class="bandrect" stroke-opacity="1" fill="#636efa" fill-opacity="1" width="16" height="6.6777147841256" y="0" cursor="ns-resize" stroke="black" stroke-width="0.2"/><text class="catlabel" pointer-events="none" text-anchor="start" alignment-baseline="middle" x="21" y="3.3388573920628" style="text-shadow: white 1px 1px 1px, white -1px -1px 1px, white 1px -1px 1px, white -1px 1px 1px; fill: rgb(42, 63, 95); font-family: 'Open Sans', verdana, arial, sans-serif; font-size: 10px; fill-opacity: 1; white-space: pre;">oven</text><text class="dimlabel" text-anchor="middle" alignment-baseline="baseline" cursor="ew-resize" x="8" y="-5" style="font-family: 'Open Sans', verdana, arial, sans-serif; font-size: 12px; fill: rgb(42, 63, 95); fill-opacity: 1;"/></g><g class="category" transform="translate(0,367.46794592237245)"><rect class="catrect" pointer-events="none" fill="none" width="16" height="0.30353249018752726" stroke="black" stroke-width="1" stroke-opacity="1"/><rect class="bandrect" stroke-opacity="1" fill="#636efa" fill-opacity="1" width="16" height="0.30353249018752726" y="0" cursor="ns-resize" stroke="black" stroke-width="0.2"/><text class="catlabel" pointer-events="none" text-anchor="start" alignment-baseline="middle" x="21" y="0.15176624509376363" style="text-shadow: white 1px 1px 1px, white -1px -1px 1px, white 1px -1px 1px, white -1px 1px 1px; fill: rgb(42, 63, 95); font-family: 'Open Sans', verdana, arial, sans-serif; font-size: 10px; fill-opacity: 1; white-space: pre;">top</text><text class="dimlabel" text-anchor="middle" alignment-baseline="baseline" cursor="ew-resize" x="8" y="-5" style="font-family: 'Open Sans', verdana, arial, sans-serif; font-size: 12px; fill: rgb(42, 63, 95); fill-opacity: 1;"/></g><g class="category" transform="translate(0,375.77147841256)"><rect class="catrect" pointer-events="none" fill="none" width="16" height="3.642389882250327" stroke="black" stroke-width="1" stroke-opacity="1"/><rect class="bandrect" stroke-opacity="1" fill="#636efa" fill-opacity="1" width="16" height="3.642389882250327" y="0" cursor="ns-resize" stroke="black" stroke-width="0.2"/><text class="catlabel" pointer-events="none" text-anchor="start" alignment-baseline="middle" x="21" y="1.8211949411251636" style="text-shadow: white 1px 1px 1px, white -1px -1px 1px, white 1px -1px 1px, white -1px 1px 1px; fill: rgb(42, 63, 95); font-family: 'Open Sans', verdana, arial, sans-serif; font-size: 10px; fill-opacity: 1; white-space: pre;">microwave</text><text class="dimlabel" text-anchor="middle" alignment-baseline="baseline" cursor="ew-resize" x="8" y="-5" style="font-family: 'Open Sans', verdana, arial, sans-serif; font-size: 12px; fill: rgb(42, 63, 95); fill-opacity: 1;"/></g><g class="category" transform="translate(0,387.4138682948103)"><rect class="catrect" pointer-events="none" fill="none" width="16" height="3.187091146969036" stroke="black" stroke-width="1" stroke-opacity="1"/><rect class="bandrect" stroke-opacity="1" fill="#636efa" fill-opacity="1" width="16" height="3.187091146969036" y="0" cursor="ns-resize" stroke="black" stroke-width="0.2"/><text class="catlabel" pointer-events="none" text-anchor="start" alignment-baseline="middle" x="21" y="1.593545573484518" style="text-shadow: white 1px 1px 1px, white -1px -1px 1px, white 1px -1px 1px, white -1px 1px 1px; fill: rgb(42, 63, 95); font-family: 'Open Sans', verdana, arial, sans-serif; font-size: 10px; fill-opacity: 1; white-space: pre;">maker:coffee</text><text class="dimlabel" text-anchor="middle" alignment-baseline="baseline" cursor="ew-resize" x="8" y="-5" style="font-family: 'Open Sans', verdana, arial, sans-serif; font-size: 12px; fill: rgb(42, 63, 95); fill-opacity: 1;"/></g><g class="category" transform="translate(0,398.6009594417793)"><rect class="catrect" pointer-events="none" fill="none" width="16" height="2.580026166593982" stroke="black" stroke-width="1" stroke-opacity="1"/><rect class="bandrect" stroke-opacity="1" fill="#636efa" fill-opacity="1" width="16" height="2.580026166593982" y="0" cursor="ns-resize" stroke="black" stroke-width="0.2"/><text class="catlabel" pointer-events="none" text-anchor="start" alignment-baseline="middle" x="21" y="1.290013083296991" style="text-shadow: white 1px 1px 1px, white -1px -1px 1px, white 1px -1px 1px, white -1px 1px 1px; fill: rgb(42, 63, 95); font-family: 'Open Sans', verdana, arial, sans-serif; font-size: 10px; fill-opacity: 1; white-space: pre;">toaster</text><text class="dimlabel" text-anchor="middle" alignment-baseline="baseline" cursor="ew-resize" x="8" y="-5" style="font-family: 'Open Sans', verdana, arial, sans-serif; font-size: 12px; fill: rgb(42, 63, 95); fill-opacity: 1;"/></g><g class="category" transform="translate(0,409.1809856083733)"><rect class="catrect" pointer-events="none" fill="none" width="16" height="2.883558656781509" stroke="black" stroke-width="1" stroke-opacity="1"/><rect class="bandrect" stroke-opacity="1" fill="#636efa" fill-opacity="1" width="16" height="2.883558656781509" y="0" cursor="ns-resize" stroke="black" stroke-width="0.2"/><text class="catlabel" pointer-events="none" text-anchor="start" alignment-baseline="middle" x="21" y="1.4417793283907545" style="text-shadow: white 1px 1px 1px, white -1px -1px 1px, white 1px -1px 1px, white -1px 1px 1px; fill: rgb(42, 63, 95); font-family: 'Open Sans', verdana, arial, sans-serif; font-size: 10px; fill-opacity: 1; white-space: pre;">blender</text><text class="dimlabel" text-anchor="middle" alignment-baseline="baseline" cursor="ew-resize" x="8" y="-5" style="font-family: 'Open Sans', verdana, arial, sans-serif; font-size: 12px; fill: rgb(42, 63, 95); fill-opacity: 1;"/></g><g class="category" transform="translate(0,420.06454426515484)"><rect class="catrect" pointer-events="none" fill="none" width="16" height="0.15176624509376363" stroke="black" stroke-width="1" stroke-opacity="1"/><rect class="bandrect" stroke-opacity="1" fill="#636efa" fill-opacity="1" width="16" height="0.15176624509376363" y="0" cursor="ns-resize" stroke="black" stroke-width="0.2"/><text class="catlabel" pointer-events="none" text-anchor="start" alignment-baseline="middle" x="21" y="0.07588312254688181" style="text-shadow: white 1px 1px 1px, white -1px -1px 1px, white 1px -1px 1px, white -1px 1px 1px; fill: rgb(42, 63, 95); font-family: 'Open Sans', verdana, arial, sans-serif; font-size: 10px; fill-opacity: 1; white-space: pre;">knob</text><text class="dimlabel" text-anchor="middle" alignment-baseline="baseline" cursor="ew-resize" x="8" y="-5" style="font-family: 'Open Sans', verdana, arial, sans-serif; font-size: 12px; fill: rgb(42, 63, 95); fill-opacity: 1;"/></g><g class="category" transform="translate(0,428.2163105102486)"><rect class="catrect" pointer-events="none" fill="none" width="16" height="3.187091146969036" stroke="black" stroke-width="1" stroke-opacity="1"/><rect class="bandrect" stroke-opacity="1" fill="#636efa" fill-opacity="1" width="16" height="3.187091146969036" y="0" cursor="ns-resize" stroke="black" stroke-width="0.2"/><text class="catlabel" pointer-events="none" text-anchor="start" alignment-baseline="middle" x="21" y="1.593545573484518" style="text-shadow: white 1px 1px 1px, white -1px -1px 1px, white 1px -1px 1px, white -1px 1px 1px; fill: rgb(42, 63, 95); font-family: 'Open Sans', verdana, arial, sans-serif; font-size: 10px; fill-opacity: 1; white-space: pre;">machine:washing</text><text class="dimlabel" text-anchor="middle" alignment-baseline="baseline" cursor="ew-resize" x="8" y="-5" style="font-family: 'Open Sans', verdana, arial, sans-serif; font-size: 12px; fill: rgb(42, 63, 95); fill-opacity: 1;"/></g><g class="category" transform="translate(0,439.4034016572176)"><rect class="catrect" pointer-events="none" fill="none" width="16" height="1.5176624509376362" stroke="black" stroke-width="1" stroke-opacity="1"/><rect class="bandrect" stroke-opacity="1" fill="#636efa" fill-opacity="1" width="16" height="1.5176624509376362" y="0" cursor="ns-resize" stroke="black" stroke-width="0.2"/><text class="catlabel" pointer-events="none" text-anchor="start" alignment-baseline="middle" x="21" y="0.7588312254688181" style="text-shadow: white 1px 1px 1px, white -1px -1px 1px, white 1px -1px 1px, white -1px 1px 1px; fill: rgb(42, 63, 95); font-family: 'Open Sans', verdana, arial, sans-serif; font-size: 10px; fill-opacity: 1; white-space: pre;">processor:food</text><text class="dimlabel" text-anchor="middle" alignment-baseline="baseline" cursor="ew-resize" x="8" y="-5" style="font-family: 'Open Sans', verdana, arial, sans-serif; font-size: 12px; fill: rgb(42, 63, 95); fill-opacity: 1;"/></g><g class="category" transform="translate(0,448.92106410815524)"><rect class="catrect" pointer-events="none" fill="none" width="16" height="0.30353249018752726" stroke="black" stroke-width="1" stroke-opacity="1"/><rect class="bandrect" stroke-opacity="1" fill="#636efa" fill-opacity="1" width="16" height="0.30353249018752726" y="0" cursor="ns-resize" stroke="black" stroke-width="0.2"/><text class="catlabel" pointer-events="none" text-anchor="start" alignment-baseline="middle" x="21" y="0.15176624509376363" style="text-shadow: white 1px 1px 1px, white -1px -1px 1px, white 1px -1px 1px, white -1px 1px 1px; fill: rgb(42, 63, 95); font-family: 'Open Sans', verdana, arial, sans-serif; font-size: 10px; fill-opacity: 1; white-space: pre;">water</text><text class="dimlabel" text-anchor="middle" alignment-baseline="baseline" cursor="ew-resize" x="8" y="-5" style="font-family: 'Open Sans', verdana, arial, sans-serif; font-size: 12px; fill: rgb(42, 63, 95); fill-opacity: 1;"/></g><g class="category" transform="translate(0,457.22459659834277)"><rect class="catrect" pointer-events="none" fill="none" width="16" height="1.5176624509376362" stroke="black" stroke-width="1" stroke-opacity="1"/><rect class="bandrect" stroke-opacity="1" fill="#636efa" fill-opacity="1" width="16" height="1.5176624509376362" y="0" cursor="ns-resize" stroke="black" stroke-width="0.2"/><text class="catlabel" pointer-events="none" text-anchor="start" alignment-baseline="middle" x="21" y="0.7588312254688181" style="text-shadow: white 1px 1px 1px, white -1px -1px 1px, white 1px -1px 1px, white -1px 1px 1px; fill: rgb(42, 63, 95); font-family: 'Open Sans', verdana, arial, sans-serif; font-size: 10px; fill-opacity: 1; white-space: pre;">button</text><text class="dimlabel" text-anchor="middle" alignment-baseline="baseline" cursor="ew-resize" x="8" y="-5" style="font-family: 'Open Sans', verdana, arial, sans-serif; font-size: 12px; fill: rgb(42, 63, 95); fill-opacity: 1;"/></g><g class="category" transform="translate(0,466.7422590492804)"><rect class="catrect" pointer-events="none" fill="none" width="16" height="1.9729611862189271" stroke="black" stroke-width="1" stroke-opacity="1"/><rect class="bandrect" stroke-opacity="1" fill="#636efa" fill-opacity="1" width="16" height="1.9729611862189271" y="0" cursor="ns-resize" stroke="black" stroke-width="0.2"/><text class="catlabel" pointer-events="none" text-anchor="start" alignment-baseline="middle" x="21" y="0.9864805931094636" style="text-shadow: white 1px 1px 1px, white -1px -1px 1px, white 1px -1px 1px, white -1px 1px 1px; fill: rgb(42, 63, 95); font-family: 'Open Sans', verdana, arial, sans-serif; font-size: 10px; fill-opacity: 1; white-space: pre;">fan:extractor</text><text class="dimlabel" text-anchor="middle" alignment-baseline="baseline" cursor="ew-resize" x="8" y="-5" style="font-family: 'Open Sans', verdana, arial, sans-serif; font-size: 12px; fill: rgb(42, 63, 95); fill-opacity: 1;"/></g><g class="category" transform="translate(0,476.7152202354993)"><rect class="catrect" pointer-events="none" fill="none" width="16" height="0.7588312254688181" stroke="black" stroke-width="1" stroke-opacity="1"/><rect class="bandrect" stroke-opacity="1" fill="#636efa" fill-opacity="1" width="16" height="0.7588312254688181" y="0" cursor="ns-resize" stroke="black" stroke-width="0.2"/><text class="catlabel" pointer-events="none" text-anchor="start" alignment-baseline="middle" x="21" y="0.37941561273440905" style="text-shadow: white 1px 1px 1px, white -1px -1px 1px, white 1px -1px 1px, white -1px 1px 1px; fill: rgb(42, 63, 95); font-family: 'Open Sans', verdana, arial, sans-serif; font-size: 10px; fill-opacity: 1; white-space: pre;">dishwasher</text><text class="dimlabel" text-anchor="middle" alignment-baseline="baseline" cursor="ew-resize" x="8" y="-5" style="font-family: 'Open Sans', verdana, arial, sans-serif; font-size: 12px; fill: rgb(42, 63, 95); fill-opacity: 1;"/></g><g class="category" transform="translate(0,485.47405146096816)"><rect class="catrect" pointer-events="none" fill="none" width="16" height="1.3658962058438726" stroke="black" stroke-width="1" stroke-opacity="1"/><rect class="bandrect" stroke-opacity="1" fill="#636efa" fill-opacity="1" width="16" height="1.3658962058438726" y="0" cursor="ns-resize" stroke="black" stroke-width="0.2"/><text class="catlabel" pointer-events="none" text-anchor="start" alignment-baseline="middle" x="21" y="0.6829481029219363" style="text-shadow: white 1px 1px 1px, white -1px -1px 1px, white 1px -1px 1px, white -1px 1px 1px; fill: rgb(42, 63, 95); font-family: 'Open Sans', verdana, arial, sans-serif; font-size: 10px; fill-opacity: 1; white-space: pre;">scale</text><text class="dimlabel" text-anchor="middle" alignment-baseline="baseline" cursor="ew-resize" x="8" y="-5" style="font-family: 'Open Sans', verdana, arial, sans-serif; font-size: 12px; fill: rgb(42, 63, 95); fill-opacity: 1;"/></g><g class="category" transform="translate(0,494.839947666812)"><rect class="catrect" pointer-events="none" fill="none" width="16" height="0.15176624509376363" stroke="black" stroke-width="1" stroke-opacity="1"/><rect class="bandrect" stroke-opacity="1" fill="#636efa" fill-opacity="1" width="16" height="0.15176624509376363" y="0" cursor="ns-resize" stroke="black" stroke-width="0.2"/><text class="catlabel" pointer-events="none" text-anchor="start" alignment-baseline="middle" x="21" y="0.07588312254688181" style="text-shadow: white 1px 1px 1px, white -1px -1px 1px, white 1px -1px 1px, white -1px 1px 1px; fill: rgb(42, 63, 95); font-family: 'Open Sans', verdana, arial, sans-serif; font-size: 10px; fill-opacity: 1; white-space: pre;">alarm</text><text class="dimlabel" text-anchor="middle" alignment-baseline="baseline" cursor="ew-resize" x="8" y="-5" style="font-family: 'Open Sans', verdana, arial, sans-serif; font-size: 12px; fill: rgb(42, 63, 95); fill-opacity: 1;"/></g><g class="category" transform="translate(0,502.9917139119058)"><rect class="catrect" pointer-events="none" fill="none" width="16" height="0.30353249018752726" stroke="black" stroke-width="1" stroke-opacity="1"/><rect class="bandrect" stroke-opacity="1" fill="#636efa" fill-opacity="1" width="16" height="0.30353249018752726" y="0" cursor="ns-resize" stroke="black" stroke-width="0.2"/><text class="catlabel" pointer-events="none" text-anchor="start" alignment-baseline="middle" x="21" y="0.15176624509376363" style="text-shadow: white 1px 1px 1px, white -1px -1px 1px, white 1px -1px 1px, white -1px 1px 1px; fill: rgb(42, 63, 95); font-family: 'Open Sans', verdana, arial, sans-serif; font-size: 10px; fill-opacity: 1; white-space: pre;">cooker:slow</text><text class="dimlabel" text-anchor="middle" alignment-baseline="baseline" cursor="ew-resize" x="8" y="-5" style="font-family: 'Open Sans', verdana, arial, sans-serif; font-size: 12px; fill: rgb(42, 63, 95); fill-opacity: 1;"/></g><g class="category" transform="translate(0,511.2952464020933)"><rect class="catrect" pointer-events="none" fill="none" width="16" height="0.15176624509376363" stroke="black" stroke-width="1" stroke-opacity="1"/><rect class="bandrect" stroke-opacity="1" fill="#636efa" fill-opacity="1" width="16" height="0.15176624509376363" y="0" cursor="ns-resize" stroke="black" stroke-width="0.2"/><text class="catlabel" pointer-events="none" text-anchor="start" alignment-baseline="middle" x="21" y="0.07588312254688181" style="text-shadow: white 1px 1px 1px, white -1px -1px 1px, white 1px -1px 1px, white -1px 1px 1px; fill: rgb(42, 63, 95); font-family: 'Open Sans', verdana, arial, sans-serif; font-size: 10px; fill-opacity: 1; white-space: pre;">liquid:washing</text><text class="dimlabel" text-anchor="middle" alignment-baseline="baseline" cursor="ew-resize" x="8" y="-5" style="font-family: 'Open Sans', verdana, arial, sans-serif; font-size: 12px; fill: rgb(42, 63, 95); fill-opacity: 1;"/></g><g class="category" transform="translate(0,519.4470126471871)"><rect class="catrect" pointer-events="none" fill="none" width="16" height="0.4552987352812909" stroke="black" stroke-width="1" stroke-opacity="1"/><rect class="bandrect" stroke-opacity="1" fill="#636efa" fill-opacity="1" width="16" height="0.4552987352812909" y="0" cursor="ns-resize" stroke="black" stroke-width="0.2"/><text class="catlabel" pointer-events="none" text-anchor="start" alignment-baseline="middle" x="21" y="0.22764936764064544" style="text-shadow: white 1px 1px 1px, white -1px -1px 1px, white 1px -1px 1px, white -1px 1px 1px; fill: rgb(42, 63, 95); font-family: 'Open Sans', verdana, arial, sans-serif; font-size: 10px; fill-opacity: 1; white-space: pre;">lid</text><text class="dimlabel" text-anchor="middle" alignment-baseline="baseline" cursor="ew-resize" x="8" y="-5" style="font-family: 'Open Sans', verdana, arial, sans-serif; font-size: 12px; fill: rgb(42, 63, 95); fill-opacity: 1;"/></g><g class="category" transform="translate(0,527.9023113824684)"><rect class="catrect" pointer-events="none" fill="none" width="16" height="0.9105974705625818" stroke="black" stroke-width="1" stroke-opacity="1"/><rect class="bandrect" stroke-opacity="1" fill="#636efa" fill-opacity="1" width="16" height="0.9105974705625818" y="0" cursor="ns-resize" stroke="black" stroke-width="0.2"/><text class="catlabel" pointer-events="none" text-anchor="start" alignment-baseline="middle" x="21" y="0.4552987352812909" style="text-shadow: white 1px 1px 1px, white -1px -1px 1px, white 1px -1px 1px, white -1px 1px 1px; fill: rgb(42, 63, 95); font-family: 'Open Sans', verdana, arial, sans-serif; font-size: 10px; fill-opacity: 1; white-space: pre;">heat</text><text class="dimlabel" text-anchor="middle" alignment-baseline="baseline" cursor="ew-resize" x="8" y="-5" style="font-family: 'Open Sans', verdana, arial, sans-serif; font-size: 12px; fill: rgb(42, 63, 95); fill-opacity: 1;"/></g><g class="category" transform="translate(0,536.812908853031)"><rect class="catrect" pointer-events="none" fill="none" width="16" height="0.30353249018752726" stroke="black" stroke-width="1" stroke-opacity="1"/><rect class="bandrect" stroke-opacity="1" fill="#636efa" fill-opacity="1" width="16" height="0.30353249018752726" y="0" cursor="ns-resize" stroke="black" stroke-width="0.2"/><text class="catlabel" pointer-events="none" text-anchor="start" alignment-baseline="middle" x="21" y="0.15176624509376363" style="text-shadow: white 1px 1px 1px, white -1px -1px 1px, white 1px -1px 1px, white -1px 1px 1px; fill: rgb(42, 63, 95); font-family: 'Open Sans', verdana, arial, sans-serif; font-size: 10px; fill-opacity: 1; white-space: pre;">tv</text><text class="dimlabel" text-anchor="middle" alignment-baseline="baseline" cursor="ew-resize" x="8" y="-5" style="font-family: 'Open Sans', verdana, arial, sans-serif; font-size: 12px; fill: rgb(42, 63, 95); fill-opacity: 1;"/></g><g class="category" transform="translate(0,545.1164413432185)"><rect class="catrect" pointer-events="none" fill="none" width="16" height="0.15176624509376363" stroke="black" stroke-width="1" stroke-opacity="1"/><rect class="bandrect" stroke-opacity="1" fill="#636efa" fill-opacity="1" width="16" height="0.15176624509376363" y="0" cursor="ns-resize" stroke="black" stroke-width="0.2"/><text class="catlabel" pointer-events="none" text-anchor="start" alignment-baseline="middle" x="21" y="0.07588312254688181" style="text-shadow: white 1px 1px 1px, white -1px -1px 1px, white 1px -1px 1px, white -1px 1px 1px; fill: rgb(42, 63, 95); font-family: 'Open Sans', verdana, arial, sans-serif; font-size: 10px; fill-opacity: 1; white-space: pre;">machine:sous:vide</text><text class="dimlabel" text-anchor="middle" alignment-baseline="baseline" cursor="ew-resize" x="8" y="-5" style="font-family: 'Open Sans', verdana, arial, sans-serif; font-size: 12px; fill: rgb(42, 63, 95); fill-opacity: 1;"/></g><g class="category" transform="translate(0,553.2682075883123)"><rect class="catrect" pointer-events="none" fill="none" width="16" height="0.4552987352812909" stroke="black" stroke-width="1" stroke-opacity="1"/><rect class="bandrect" stroke-opacity="1" fill="#636efa" fill-opacity="1" width="16" height="0.4552987352812909" y="0" cursor="ns-resize" stroke="black" stroke-width="0.2"/><text class="catlabel" pointer-events="none" text-anchor="start" alignment-baseline="middle" x="21" y="0.22764936764064544" style="text-shadow: white 1px 1px 1px, white -1px -1px 1px, white 1px -1px 1px, white -1px 1px 1px; fill: rgb(42, 63, 95); font-family: 'Open Sans', verdana, arial, sans-serif; font-size: 10px; fill-opacity: 1; white-space: pre;">heater</text><text class="dimlabel" text-anchor="middle" alignment-baseline="baseline" cursor="ew-resize" x="8" y="-5" style="font-family: 'Open Sans', verdana, arial, sans-serif; font-size: 12px; fill: rgb(42, 63, 95); fill-opacity: 1;"/></g><g class="category" transform="translate(0,561.7235063235936)"><rect class="catrect" pointer-events="none" fill="none" width="16" height="0.15176624509376363" stroke="black" stroke-width="1" stroke-opacity="1"/><rect class="bandrect" stroke-opacity="1" fill="#636efa" fill-opacity="1" width="16" height="0.15176624509376363" y="0" cursor="ns-resize" stroke="black" stroke-width="0.2"/><text class="catlabel" pointer-events="none" text-anchor="start" alignment-baseline="middle" x="21" y="0.07588312254688181" style="text-shadow: white 1px 1px 1px, white -1px -1px 1px, white 1px -1px 1px, white -1px 1px 1px; fill: rgb(42, 63, 95); font-family: 'Open Sans', verdana, arial, sans-serif; font-size: 10px; fill-opacity: 1; white-space: pre;">tomato</text><text class="dimlabel" text-anchor="middle" alignment-baseline="baseline" cursor="ew-resize" x="8" y="-5" style="font-family: 'Open Sans', verdana, arial, sans-serif; font-size: 12px; fill: rgb(42, 63, 95); fill-opacity: 1;"/></g><g class="category" transform="translate(0,569.8752725686874)"><rect class="catrect" pointer-events="none" fill="none" width="16" height="0.15176624509376363" stroke="black" stroke-width="1" stroke-opacity="1"/><rect class="bandrect" stroke-opacity="1" fill="#636efa" fill-opacity="1" width="16" height="0.15176624509376363" y="0" cursor="ns-resize" stroke="black" stroke-width="0.2"/><text class="catlabel" pointer-events="none" text-anchor="start" alignment-baseline="middle" x="21" y="0.07588312254688181" style="text-shadow: white 1px 1px 1px, white -1px -1px 1px, white 1px -1px 1px, white -1px 1px 1px; fill: rgb(42, 63, 95); font-family: 'Open Sans', verdana, arial, sans-serif; font-size: 10px; fill-opacity: 1; white-space: pre;">plate</text><text class="dimlabel" text-anchor="middle" alignment-baseline="baseline" cursor="ew-resize" x="8" y="-5" style="font-family: 'Open Sans', verdana, arial, sans-serif; font-size: 12px; fill: rgb(42, 63, 95); fill-opacity: 1;"/></g><g class="category" transform="translate(0,578.0270388137811)"><rect class="catrect" pointer-events="none" fill="none" width="16" height="0.15176624509376363" stroke="black" stroke-width="1" stroke-opacity="1"/><rect class="bandrect" stroke-opacity="1" fill="#636efa" fill-opacity="1" width="16" height="0.15176624509376363" y="0" cursor="ns-resize" stroke="black" stroke-width="0.2"/><text class="catlabel" pointer-events="none" text-anchor="start" alignment-baseline="middle" x="21" y="0.07588312254688181" style="text-shadow: white 1px 1px 1px, white -1px -1px 1px, white 1px -1px 1px, white -1px 1px 1px; fill: rgb(42, 63, 95); font-family: 'Open Sans', verdana, arial, sans-serif; font-size: 10px; fill-opacity: 1; white-space: pre;">pan</text><text class="dimlabel" text-anchor="middle" alignment-baseline="baseline" cursor="ew-resize" x="8" y="-5" style="font-family: 'Open Sans', verdana, arial, sans-serif; font-size: 12px; fill: rgb(42, 63, 95); fill-opacity: 1;"/></g><g class="category" transform="translate(0,586.1788050588749)"><rect class="catrect" pointer-events="none" fill="none" width="16" height="0.4552987352812909" stroke="black" stroke-width="1" stroke-opacity="1"/><rect class="bandrect" stroke-opacity="1" fill="#636efa" fill-opacity="1" width="16" height="0.4552987352812909" y="0" cursor="ns-resize" stroke="black" stroke-width="0.2"/><text class="catlabel" pointer-events="none" text-anchor="start" alignment-baseline="middle" x="21" y="0.22764936764064544" style="text-shadow: white 1px 1px 1px, white -1px -1px 1px, white 1px -1px 1px, white -1px 1px 1px; fill: rgb(42, 63, 95); font-family: 'Open Sans', verdana, arial, sans-serif; font-size: 10px; fill-opacity: 1; white-space: pre;">lighter</text><text class="dimlabel" text-anchor="middle" alignment-baseline="baseline" cursor="ew-resize" x="8" y="-5" style="font-family: 'Open Sans', verdana, arial, sans-serif; font-size: 12px; fill: rgb(42, 63, 95); fill-opacity: 1;"/></g><g class="category" transform="translate(0,594.6341037941562)"><rect class="catrect" pointer-events="none" fill="none" width="16" height="0.9105974705625818" stroke="black" stroke-width="1" stroke-opacity="1"/><rect class="bandrect" stroke-opacity="1" fill="#636efa" fill-opacity="1" width="16" height="0.9105974705625818" y="0" cursor="ns-resize" stroke="black" stroke-width="0.2"/><text class="catlabel" pointer-events="none" text-anchor="start" alignment-baseline="middle" x="21" y="0.4552987352812909" style="text-shadow: white 1px 1px 1px, white -1px -1px 1px, white 1px -1px 1px, white -1px 1px 1px; fill: rgb(42, 63, 95); font-family: 'Open Sans', verdana, arial, sans-serif; font-size: 10px; fill-opacity: 1; white-space: pre;">bottle</text><text class="dimlabel" text-anchor="middle" alignment-baseline="baseline" cursor="ew-resize" x="8" y="-5" style="font-family: 'Open Sans', verdana, arial, sans-serif; font-size: 12px; fill: rgb(42, 63, 95); fill-opacity: 1;"/></g><g class="category" transform="translate(0,603.5447012647188)"><rect class="catrect" pointer-events="none" fill="none" width="16" height="0.15176624509376363" stroke="black" stroke-width="1" stroke-opacity="1"/><rect class="bandrect" stroke-opacity="1" fill="#636efa" fill-opacity="1" width="16" height="0.15176624509376363" y="0" cursor="ns-resize" stroke="black" stroke-width="0.2"/><text class="catlabel" pointer-events="none" text-anchor="start" alignment-baseline="middle" x="21" y="0.07588312254688181" style="text-shadow: white 1px 1px 1px, white -1px -1px 1px, white 1px -1px 1px, white -1px 1px 1px; fill: rgb(42, 63, 95); font-family: 'Open Sans', verdana, arial, sans-serif; font-size: 10px; fill-opacity: 1; white-space: pre;">phone</text><text class="dimlabel" text-anchor="middle" alignment-baseline="baseline" cursor="ew-resize" x="8" y="-5" style="font-family: 'Open Sans', verdana, arial, sans-serif; font-size: 12px; fill: rgb(42, 63, 95); fill-opacity: 1;"/></g><g class="category" transform="translate(0,611.6964675098126)"><rect class="catrect" pointer-events="none" fill="none" width="16" height="0.15176624509376363" stroke="black" stroke-width="1" stroke-opacity="1"/><rect class="bandrect" stroke-opacity="1" fill="#636efa" fill-opacity="1" width="16" height="0.15176624509376363" y="0" cursor="ns-resize" stroke="black" stroke-width="0.2"/><text class="catlabel" pointer-events="none" text-anchor="start" alignment-baseline="middle" x="21" y="0.07588312254688181" style="text-shadow: white 1px 1px 1px, white -1px -1px 1px, white 1px -1px 1px, white -1px 1px 1px; fill: rgb(42, 63, 95); font-family: 'Open Sans', verdana, arial, sans-serif; font-size: 10px; fill-opacity: 1; white-space: pre;">hoover</text><text class="dimlabel" text-anchor="middle" alignment-baseline="baseline" cursor="ew-resize" x="8" y="-5" style="font-family: 'Open Sans', verdana, arial, sans-serif; font-size: 12px; fill: rgb(42, 63, 95); fill-opacity: 1;"/></g><g class="category" transform="translate(0,619.8482337549063)"><rect class="catrect" pointer-events="none" fill="none" width="16" height="0.15176624509376363" stroke="black" stroke-width="1" stroke-opacity="1"/><rect class="bandrect" stroke-opacity="1" fill="#636efa" fill-opacity="1" width="16" height="0.15176624509376363" y="0" cursor="ns-resize" stroke="black" stroke-width="0.2"/><text class="catlabel" pointer-events="none" text-anchor="start" alignment-baseline="middle" x="21" y="0.07588312254688181" style="text-shadow: white 1px 1px 1px, white -1px -1px 1px, white 1px -1px 1px, white -1px 1px 1px; fill: rgb(42, 63, 95); font-family: 'Open Sans', verdana, arial, sans-serif; font-size: 10px; fill-opacity: 1; white-space: pre;">air</text><text class="dimlabel" text-anchor="middle" alignment-baseline="baseline" cursor="ew-resize" x="8" y="-5" style="font-family: 'Open Sans', verdana, arial, sans-serif; font-size: 12px; fill: rgb(42, 63, 95); fill-opacity: 1;"/></g></g></g></g></g><defs id="topdefs-27a1b6"><g class="clips"/></defs><g class="layer-above"><g class="imagelayer"/><g class="shapelayer"/></g><g class="infolayer"><g class="g-gtitle"><text class="gtitle" x="50" y="50" text-anchor="start" dy="0em" style="font-family: 'Open Sans', verdana, arial, sans-serif; font-size: 17px; fill: rgb(42, 63, 95); opacity: 1; font-weight: normal; white-space: pre;">Action co-occurrence in EK-100 training set for verb <tspan style="font-weight:bold">turn-on</tspan></text></g></g></svg>
