<svg class="main-svg" xmlns="http://www.w3.org/2000/svg" xmlns:xlink="http://www.w3.org/1999/xlink" width="1000" height="800" style="" viewBox="0 0 1000 800"><rect x="0" y="0" width="1000" height="800" style="fill: rgb(255, 255, 255); fill-opacity: 1;"/><defs id="defs-c439d3"><g class="clips"/><g class="gradients"/><g class="patterns"/></defs><g class="bglayer"/><g class="layer-below"><g class="imagelayer"/><g class="shapelayer"/></g><g class="cartesianlayer"/><g class="polarlayer"/><g class="smithlayer"/><g class="ternarylayer"/><g class="geolayer"/><g class="funnelarealayer"/><g class="pielayer"/><g class="iciclelayer"/><g class="treemaplayer"/><g class="sunburstlayer"/><g class="glimages"/><g class="parcatslayer" style="pointer-events: none;"><g class="trace parcats" transform="translate(80,100)"><g class="paths"><path class="path" stroke-opacity="1" fill="#636efa" fill-opacity="0.6" stroke="lightgray" stroke-width="0.2" d="M 40,100l16,0 C56,100 784,0 784,0l16,0 l0,22.34282643739925 l -16,0 C784,22.34282643739925 56,122.34282643739925 56,122.34282643739925l-16,0 Z"/><path class="path" stroke-opacity="1" fill="#636efa" fill-opacity="0.6" stroke="lightgray" stroke-width="0.2" d="M 40,122.34282643739925l16,0 C56,122.34282643739925 784,30.34282643739925 784,30.34282643739925l16,0 l0,358.3879634605051 l -16,0 C784,388.73078989790434 56,480.73078989790434 56,480.73078989790434l-16,0 Z"/><path class="path" stroke-opacity="1" fill="#636efa" fill-opacity="0.6" stroke="lightgray" stroke-width="0.2" d="M 40,480.73078989790434l16,0 C56,480.73078989790434 784,483.9763567974207 784,483.9763567974207l16,0 l0,5.190757657173562 l -16,0 C784,489.16711445459424 56,485.9215475550779 56,485.9215475550779l-16,0 Z"/><path class="path" stroke-opacity="1" fill="#636efa" fill-opacity="0.6" stroke="lightgray" stroke-width="0.2" d="M 40,485.9215475550779l16,0 C56,485.9215475550779 784,497.16711445459424 784,497.16711445459424l16,0 l0,1.5797958087049975 l -16,0 C784,498.74691026329924 56,487.5013433637829 56,487.5013433637829l-16,0 Z"/><path class="path" stroke-opacity="1" fill="#636efa" fill-opacity="0.6" stroke="lightgray" stroke-width="0.2" d="M 40,487.5013433637829l16,0 C56,487.5013433637829 784,506.74691026329924 784,506.74691026329924l16,0 l0,0.677055346587856 l -16,0 C784,507.4239656098871 56,488.17839871037074 56,488.17839871037074l-16,0 Z"/><path class="path" stroke-opacity="1" fill="#636efa" fill-opacity="0.6" stroke="lightgray" stroke-width="0.2" d="M 40,488.17839871037074l16,0 C56,488.17839871037074 784,515.4239656098871 784,515.4239656098871l16,0 l0,1.5797958087049975 l -16,0 C784,517.003761418592 56,489.75819451907574 56,489.75819451907574l-16,0 Z"/><path class="path" stroke-opacity="1" fill="#636efa" fill-opacity="0.6" stroke="lightgray" stroke-width="0.2" d="M 40,489.75819451907574l16,0 C56,489.75819451907574 784,525.003761418592 784,525.003761418592l16,0 l0,0.22568511552928536 l -16,0 C784,525.2294465341213 56,489.98387963460505 56,489.98387963460505l-16,0 Z"/><path class="path" stroke-opacity="1" fill="#636efa" fill-opacity="0.6" stroke="lightgray" stroke-width="0.2" d="M 40,489.98387963460505l16,0 C56,489.98387963460505 784,533.2294465341213 784,533.2294465341213l16,0 l0,0.677055346587856 l -16,0 C784,533.9065018807091 56,490.6609349811929 56,490.6609349811929l-16,0 Z"/><path class="path" stroke-opacity="1" fill="#636efa" fill-opacity="0.6" stroke="lightgray" stroke-width="0.2" d="M 40,490.6609349811929l16,0 C56,490.6609349811929 784,541.9065018807091 784,541.9065018807091l16,0 l0,2.031166039763568 l -16,0 C784,543.9376679204727 56,492.69210102095644 56,492.69210102095644l-16,0 Z"/><path class="path" stroke-opacity="1" fill="#636efa" fill-opacity="0.6" stroke="lightgray" stroke-width="0.2" d="M 40,492.69210102095644l16,0 C56,492.69210102095644 784,551.9376679204727 784,551.9376679204727l16,0 l0,0.4513702310585707 l -16,0 C784,552.3890381515313 56,493.143471252015 56,493.143471252015l-16,0 Z"/><path class="path" stroke-opacity="1" fill="#636efa" fill-opacity="0.6" stroke="lightgray" stroke-width="0.2" d="M 40,493.143471252015l16,0 C56,493.143471252015 784,560.3890381515313 784,560.3890381515313l16,0 l0,0.22568511552928536 l -16,0 C784,560.6147232670605 56,493.3691563675443 56,493.3691563675443l-16,0 Z"/><path class="path" stroke-opacity="1" fill="#636efa" fill-opacity="0.6" stroke="lightgray" stroke-width="0.2" d="M 40,493.3691563675443l16,0 C56,493.3691563675443 784,568.6147232670605 784,568.6147232670605l16,0 l0,0.22568511552928536 l -16,0 C784,568.8404083825898 56,493.5948414830736 56,493.5948414830736l-16,0 Z"/><path class="path" stroke-opacity="1" fill="#636efa" fill-opacity="0.6" stroke="lightgray" stroke-width="0.2" d="M 40,493.5948414830736l16,0 C56,493.5948414830736 784,396.73078989790434 784,396.73078989790434l16,0 l0,0.9027404621171414 l -16,0 C784,397.6335303600215 56,494.49758194519075 56,494.49758194519075l-16,0 Z"/><path class="path" stroke-opacity="1" fill="#636efa" fill-opacity="0.6" stroke="lightgray" stroke-width="0.2" d="M 40,494.49758194519075l16,0 C56,494.49758194519075 784,576.8404083825898 784,576.8404083825898l16,0 l0,0.677055346587856 l -16,0 C784,577.5174637291776 56,495.1746372917786 56,495.1746372917786l-16,0 Z"/><path class="path" stroke-opacity="1" fill="#636efa" fill-opacity="0.6" stroke="lightgray" stroke-width="0.2" d="M 40,495.1746372917786l16,0 C56,495.1746372917786 784,585.5174637291776 784,585.5174637291776l16,0 l0,0.22568511552928536 l -16,0 C784,585.7431488447069 56,495.4003224073079 56,495.4003224073079l-16,0 Z"/><path class="path" stroke-opacity="1" fill="#636efa" fill-opacity="0.6" stroke="lightgray" stroke-width="0.2" d="M 40,495.4003224073079l16,0 C56,495.4003224073079 784,593.7431488447069 784,593.7431488447069l16,0 l0,0.4513702310585707 l -16,0 C784,594.1945190757655 56,495.85169263836644 56,495.85169263836644l-16,0 Z"/><path class="path" stroke-opacity="1" fill="#636efa" fill-opacity="0.6" stroke="lightgray" stroke-width="0.2" d="M 40,495.85169263836644l16,0 C56,495.85169263836644 784,602.1945190757655 784,602.1945190757655l16,0 l0,0.22568511552928536 l -16,0 C784,602.4202041912947 56,496.07737775389575 56,496.07737775389575l-16,0 Z"/><path class="path" stroke-opacity="1" fill="#636efa" fill-opacity="0.6" stroke="lightgray" stroke-width="0.2" d="M 40,496.07737775389575l16,0 C56,496.07737775389575 784,610.4202041912947 784,610.4202041912947l16,0 l0,1.1284255776464267 l -16,0 C784,611.5486297689412 56,497.2058033315422 56,497.2058033315422l-16,0 Z"/><path class="path" stroke-opacity="1" fill="#636efa" fill-opacity="0.6" stroke="lightgray" stroke-width="0.2" d="M 40,497.2058033315422l16,0 C56,497.2058033315422 784,619.5486297689412 784,619.5486297689412l16,0 l0,0.4513702310585707 l -16,0 C784,619.9999999999998 56,497.65717356260075 56,497.65717356260075l-16,0 Z"/><path class="path" stroke-opacity="1" fill="#636efa" fill-opacity="0.6" stroke="lightgray" stroke-width="0.2" d="M 40,497.65717356260075l16,0 C56,497.65717356260075 784,405.6335303600215 784,405.6335303600215l16,0 l0,6.093498119290704 l -16,0 C784,411.7270284793122 56,503.75067168189145 56,503.75067168189145l-16,0 Z"/><path class="path" stroke-opacity="1" fill="#636efa" fill-opacity="0.6" stroke="lightgray" stroke-width="0.2" d="M 40,503.75067168189145l16,0 C56,503.75067168189145 784,419.7270284793122 784,419.7270284793122l16,0 l0,7.673293927995702 l -16,0 C784,427.4003224073079 56,511.42396560988715 56,511.42396560988715l-16,0 Z"/><path class="path" stroke-opacity="1" fill="#636efa" fill-opacity="0.6" stroke="lightgray" stroke-width="0.2" d="M 40,511.42396560988715l16,0 C56,511.42396560988715 784,435.4003224073079 784,435.4003224073079l16,0 l0,0.9027404621171414 l -16,0 C784,436.30306286942505 56,512.3267060720043 56,512.3267060720043l-16,0 Z"/><path class="path" stroke-opacity="1" fill="#636efa" fill-opacity="0.6" stroke="lightgray" stroke-width="0.2" d="M 40,512.3267060720043l16,0 C56,512.3267060720043 784,444.30306286942505 784,444.30306286942505l16,0 l0,1.354110693175712 l -16,0 C784,445.65717356260075 56,513.68081676518 56,513.68081676518l-16,0 Z"/><path class="path" stroke-opacity="1" fill="#636efa" fill-opacity="0.6" stroke="lightgray" stroke-width="0.2" d="M 40,513.68081676518l16,0 C56,513.68081676518 784,453.65717356260075 784,453.65717356260075l16,0 l0,2.708221386351424 l -16,0 C784,456.36539494895214 56,516.3890381515314 56,516.3890381515314l-16,0 Z"/><path class="path" stroke-opacity="1" fill="#636efa" fill-opacity="0.6" stroke="lightgray" stroke-width="0.2" d="M 40,516.3890381515314l16,0 C56,516.3890381515314 784,464.36539494895214 784,464.36539494895214l16,0 l0,2.031166039763568 l -16,0 C784,466.3965609887157 56,518.4202041912949 56,518.4202041912949l-16,0 Z"/><path class="path" stroke-opacity="1" fill="#636efa" fill-opacity="0.6" stroke="lightgray" stroke-width="0.2" d="M 40,518.4202041912949l16,0 C56,518.4202041912949 784,474.3965609887157 784,474.3965609887157l16,0 l0,1.5797958087049975 l -16,0 C784,475.9763567974207 56,519.9999999999999 56,519.9999999999999l-16,0 Z"/></g><g class="dimensions"><g class="dimension" transform="translate(40,0)"><g class="category" transform="translate(0,100)"><rect class="catrect" pointer-events="none" fill="none" width="16" height="420" stroke="black" stroke-width="1" stroke-opacity="1"/><rect class="bandrect" stroke-opacity="1" fill="#636efa" fill-opacity="1" width="16" height="419.99999999999994" y="0" cursor="ns-resize" stroke="black" stroke-width="0.2"/><text class="catlabel" pointer-events="none" text-anchor="end" alignment-baseline="middle" x="-5" y="210" style="text-shadow: white 1px 1px 1px, white -1px -1px 1px, white 1px -1px 1px, white -1px 1px 1px; fill: rgb(42, 63, 95); font-family: 'Open Sans', verdana, arial, sans-serif; font-size: 10px; fill-opacity: 1; white-space: pre;">turn-off</text><text class="dimlabel" text-anchor="middle" alignment-baseline="baseline" cursor="ew-resize" x="8" y="-5" style="font-family: 'Open Sans', verdana, arial, sans-serif; font-size: 12px; fill: rgb(42, 63, 95); fill-opacity: 1;">Verb</text></g></g><g class="dimension" transform="translate(784,0)"><g class="category" transform=""><rect class="catrect" pointer-events="none" fill="none" width="16" height="22.34282643739925" stroke="black" stroke-width="1" stroke-opacity="1"/><rect class="bandrect" stroke-opacity="1" fill="#636efa" fill-opacity="1" width="16" height="22.34282643739925" y="0" cursor="ns-resize" stroke="black" stroke-width="0.2"/><text class="catlabel" pointer-events="none" text-anchor="start" alignment-baseline="middle" x="21" y="11.171413218699625" style="text-shadow: white 1px 1px 1px, white -1px -1px 1px, white 1px -1px 1px, white -1px 1px 1px; fill: rgb(42, 63, 95); font-family: 'Open Sans', verdana, arial, sans-serif; font-size: 10px; fill-opacity: 1; white-space: pre;">hob</text><text class="dimlabel" text-anchor="middle" alignment-baseline="baseline" cursor="ew-resize" x="8" y="-5" style="font-family: 'Open Sans', verdana, arial, sans-serif; font-size: 12px; fill: rgb(42, 63, 95); fill-opacity: 1;">Noun</text></g><g class="category" transform="translate(0,30.34282643739925)"><rect class="catrect" pointer-events="none" fill="none" width="16" height="358.3879634605051" stroke="black" stroke-width="1" stroke-opacity="1"/><rect class="bandrect" stroke-opacity="1" fill="#636efa" fill-opacity="1" width="16" height="358.3879634605051" y="0" cursor="ns-resize" stroke="black" stroke-width="0.2"/><text class="catlabel" pointer-events="none" text-anchor="start" alignment-baseline="middle" x="21" y="179.19398173025255" style="text-shadow: white 1px 1px 1px, white -1px -1px 1px, white 1px -1px 1px, white -1px 1px 1px; fill: rgb(42, 63, 95); font-family: 'Open Sans', verdana, arial, sans-serif; font-size: 10px; fill-opacity: 1; white-space: pre;">tap</text><text class="dimlabel" text-anchor="middle" alignment-baseline="baseline" cursor="ew-resize" x="8" y="-5" style="font-family: 'Open Sans', verdana, arial, sans-serif; font-size: 12px; fill: rgb(42, 63, 95); fill-opacity: 1;"/></g><g class="category" transform="translate(0,396.73078989790434)"><rect class="catrect" pointer-events="none" fill="none" width="16" height="0.9027404621171414" stroke="black" stroke-width="1" stroke-opacity="1"/><rect class="bandrect" stroke-opacity="1" fill="#636efa" fill-opacity="1" width="16" height="0.9027404621171414" y="0" cursor="ns-resize" stroke="black" stroke-width="0.2"/><text class="catlabel" pointer-events="none" text-anchor="start" alignment-baseline="middle" x="21" y="0.4513702310585707" style="text-shadow: white 1px 1px 1px, white -1px -1px 1px, white 1px -1px 1px, white -1px 1px 1px; fill: rgb(42, 63, 95); font-family: 'Open Sans', verdana, arial, sans-serif; font-size: 10px; fill-opacity: 1; white-space: pre;">top</text><text class="dimlabel" text-anchor="middle" alignment-baseline="baseline" cursor="ew-resize" x="8" y="-5" style="font-family: 'Open Sans', verdana, arial, sans-serif; font-size: 12px; fill: rgb(42, 63, 95); fill-opacity: 1;"/></g><g class="category" transform="translate(0,405.6335303600215)"><rect class="catrect" pointer-events="none" fill="none" width="16" height="6.093498119290704" stroke="black" stroke-width="1" stroke-opacity="1"/><rect class="bandrect" stroke-opacity="1" fill="#636efa" fill-opacity="1" width="16" height="6.093498119290704" y="0" cursor="ns-resize" stroke="black" stroke-width="0.2"/><text class="catlabel" pointer-events="none" text-anchor="start" alignment-baseline="middle" x="21" y="3.046749059645352" style="text-shadow: white 1px 1px 1px, white -1px -1px 1px, white 1px -1px 1px, white -1px 1px 1px; fill: rgb(42, 63, 95); font-family: 'Open Sans', verdana, arial, sans-serif; font-size: 10px; fill-opacity: 1; white-space: pre;">light</text><text class="dimlabel" text-anchor="middle" alignment-baseline="baseline" cursor="ew-resize" x="8" y="-5" style="font-family: 'Open Sans', verdana, arial, sans-serif; font-size: 12px; fill: rgb(42, 63, 95); fill-opacity: 1;"/></g><g class="category" transform="translate(0,419.7270284793122)"><rect class="catrect" pointer-events="none" fill="none" width="16" height="7.673293927995702" stroke="black" stroke-width="1" stroke-opacity="1"/><rect class="bandrect" stroke-opacity="1" fill="#636efa" fill-opacity="1" width="16" height="7.673293927995702" y="0" cursor="ns-resize" stroke="black" stroke-width="0.2"/><text class="catlabel" pointer-events="none" text-anchor="start" alignment-baseline="middle" x="21" y="3.836646963997851" style="text-shadow: white 1px 1px 1px, white -1px -1px 1px, white 1px -1px 1px, white -1px 1px 1px; fill: rgb(42, 63, 95); font-family: 'Open Sans', verdana, arial, sans-serif; font-size: 10px; fill-opacity: 1; white-space: pre;">oven</text><text class="dimlabel" text-anchor="middle" alignment-baseline="baseline" cursor="ew-resize" x="8" y="-5" style="font-family: 'Open Sans', verdana, arial, sans-serif; font-size: 12px; fill: rgb(42, 63, 95); fill-opacity: 1;"/></g><g class="category" transform="translate(0,435.4003224073079)"><rect class="catrect" pointer-events="none" fill="none" width="16" height="0.9027404621171414" stroke="black" stroke-width="1" stroke-opacity="1"/><rect class="bandrect" stroke-opacity="1" fill="#636efa" fill-opacity="1" width="16" height="0.9027404621171414" y="0" cursor="ns-resize" stroke="black" stroke-width="0.2"/><text class="catlabel" pointer-events="none" text-anchor="start" alignment-baseline="middle" x="21" y="0.4513702310585707" style="text-shadow: white 1px 1px 1px, white -1px -1px 1px, white 1px -1px 1px, white -1px 1px 1px; fill: rgb(42, 63, 95); font-family: 'Open Sans', verdana, arial, sans-serif; font-size: 10px; fill-opacity: 1; white-space: pre;">microwave</text><text class="dimlabel" text-anchor="middle" alignment-baseline="baseline" cursor="ew-resize" x="8" y="-5" style="font-family: 'Open Sans', verdana, arial, sans-serif; font-size: 12px; fill: rgb(42, 63, 95); fill-opacity: 1;"/></g><g class="category" transform="translate(0,444.30306286942505)"><rect class="catrect" pointer-events="none" fill="none" width="16" height="1.354110693175712" stroke="black" stroke-width="1" stroke-opacity="1"/><rect class="bandrect" stroke-opacity="1" fill="#636efa" fill-opacity="1" width="16" height="1.354110693175712" y="0" cursor="ns-resize" stroke="black" stroke-width="0.2"/><text class="catlabel" pointer-events="none" text-anchor="start" alignment-baseline="middle" x="21" y="0.677055346587856" style="text-shadow: white 1px 1px 1px, white -1px -1px 1px, white 1px -1px 1px, white -1px 1px 1px; fill: rgb(42, 63, 95); font-family: 'Open Sans', verdana, arial, sans-serif; font-size: 10px; fill-opacity: 1; white-space: pre;">alarm</text><text class="dimlabel" text-anchor="middle" alignment-baseline="baseline" cursor="ew-resize" x="8" y="-5" style="font-family: 'Open Sans', verdana, arial, sans-serif; font-size: 12px; fill: rgb(42, 63, 95); fill-opacity: 1;"/></g><g class="category" transform="translate(0,453.65717356260075)"><rect class="catrect" pointer-events="none" fill="none" width="16" height="2.708221386351424" stroke="black" stroke-width="1" stroke-opacity="1"/><rect class="bandrect" stroke-opacity="1" fill="#636efa" fill-opacity="1" width="16" height="2.708221386351424" y="0" cursor="ns-resize" stroke="black" stroke-width="0.2"/><text class="catlabel" pointer-events="none" text-anchor="start" alignment-baseline="middle" x="21" y="1.354110693175712" style="text-shadow: white 1px 1px 1px, white -1px -1px 1px, white 1px -1px 1px, white -1px 1px 1px; fill: rgb(42, 63, 95); font-family: 'Open Sans', verdana, arial, sans-serif; font-size: 10px; fill-opacity: 1; white-space: pre;">heat</text><text class="dimlabel" text-anchor="middle" alignment-baseline="baseline" cursor="ew-resize" x="8" y="-5" style="font-family: 'Open Sans', verdana, arial, sans-serif; font-size: 12px; fill: rgb(42, 63, 95); fill-opacity: 1;"/></g><g class="category" transform="translate(0,464.36539494895214)"><rect class="catrect" pointer-events="none" fill="none" width="16" height="2.031166039763568" stroke="black" stroke-width="1" stroke-opacity="1"/><rect class="bandrect" stroke-opacity="1" fill="#636efa" fill-opacity="1" width="16" height="2.031166039763568" y="0" cursor="ns-resize" stroke="black" stroke-width="0.2"/><text class="catlabel" pointer-events="none" text-anchor="start" alignment-baseline="middle" x="21" y="1.015583019881784" style="text-shadow: white 1px 1px 1px, white -1px -1px 1px, white 1px -1px 1px, white -1px 1px 1px; fill: rgb(42, 63, 95); font-family: 'Open Sans', verdana, arial, sans-serif; font-size: 10px; fill-opacity: 1; white-space: pre;">kettle</text><text class="dimlabel" text-anchor="middle" alignment-baseline="baseline" cursor="ew-resize" x="8" y="-5" style="font-family: 'Open Sans', verdana, arial, sans-serif; font-size: 12px; fill: rgb(42, 63, 95); fill-opacity: 1;"/></g><g class="category" transform="translate(0,474.3965609887157)"><rect class="catrect" pointer-events="none" fill="none" width="16" height="1.5797958087049975" stroke="black" stroke-width="1" stroke-opacity="1"/><rect class="bandrect" stroke-opacity="1" fill="#636efa" fill-opacity="1" width="16" height="1.5797958087049975" y="0" cursor="ns-resize" stroke="black" stroke-width="0.2"/><text class="catlabel" pointer-events="none" text-anchor="start" alignment-baseline="middle" x="21" y="0.7898979043524987" style="text-shadow: white 1px 1px 1px, white -1px -1px 1px, white 1px -1px 1px, white -1px 1px 1px; fill: rgb(42, 63, 95); font-family: 'Open Sans', verdana, arial, sans-serif; font-size: 10px; fill-opacity: 1; white-space: pre;">maker:coffee</text><text class="dimlabel" text-anchor="middle" alignment-baseline="baseline" cursor="ew-resize" x="8" y="-5" style="font-family: 'Open Sans', verdana, arial, sans-serif; font-size: 12px; fill: rgb(42, 63, 95); fill-opacity: 1;"/></g><g class="category" transform="translate(0,483.9763567974207)"><rect class="catrect" pointer-events="none" fill="none" width="16" height="5.190757657173562" stroke="black" stroke-width="1" stroke-opacity="1"/><rect class="bandrect" stroke-opacity="1" fill="#636efa" fill-opacity="1" width="16" height="5.190757657173562" y="0" cursor="ns-resize" stroke="black" stroke-width="0.2"/><text class="catlabel" pointer-events="none" text-anchor="start" alignment-baseline="middle" x="21" y="2.595378828586781" style="text-shadow: white 1px 1px 1px, white -1px -1px 1px, white 1px -1px 1px, white -1px 1px 1px; fill: rgb(42, 63, 95); font-family: 'Open Sans', verdana, arial, sans-serif; font-size: 10px; fill-opacity: 1; white-space: pre;">blender</text><text class="dimlabel" text-anchor="middle" alignment-baseline="baseline" cursor="ew-resize" x="8" y="-5" style="font-family: 'Open Sans', verdana, arial, sans-serif; font-size: 12px; fill: rgb(42, 63, 95); fill-opacity: 1;"/></g><g class="category" transform="translate(0,497.16711445459424)"><rect class="catrect" pointer-events="none" fill="none" width="16" height="1.5797958087049975" stroke="black" stroke-width="1" stroke-opacity="1"/><rect class="bandrect" stroke-opacity="1" fill="#636efa" fill-opacity="1" width="16" height="1.5797958087049975" y="0" cursor="ns-resize" stroke="black" stroke-width="0.2"/><text class="catlabel" pointer-events="none" text-anchor="start" alignment-baseline="middle" x="21" y="0.7898979043524987" style="text-shadow: white 1px 1px 1px, white -1px -1px 1px, white 1px -1px 1px, white -1px 1px 1px; fill: rgb(42, 63, 95); font-family: 'Open Sans', verdana, arial, sans-serif; font-size: 10px; fill-opacity: 1; white-space: pre;">processor:food</text><text class="dimlabel" text-anchor="middle" alignment-baseline="baseline" cursor="ew-resize" x="8" y="-5" style="font-family: 'Open Sans', verdana, arial, sans-serif; font-size: 12px; fill: rgb(42, 63, 95); fill-opacity: 1;"/></g><g class="category" transform="translate(0,506.74691026329924)"><rect class="catrect" pointer-events="none" fill="none" width="16" height="0.677055346587856" stroke="black" stroke-width="1" stroke-opacity="1"/><rect class="bandrect" stroke-opacity="1" fill="#636efa" fill-opacity="1" width="16" height="0.677055346587856" y="0" cursor="ns-resize" stroke="black" stroke-width="0.2"/><text class="catlabel" pointer-events="none" text-anchor="start" alignment-baseline="middle" x="21" y="0.338527673293928" style="text-shadow: white 1px 1px 1px, white -1px -1px 1px, white 1px -1px 1px, white -1px 1px 1px; fill: rgb(42, 63, 95); font-family: 'Open Sans', verdana, arial, sans-serif; font-size: 10px; fill-opacity: 1; white-space: pre;">pot</text><text class="dimlabel" text-anchor="middle" alignment-baseline="baseline" cursor="ew-resize" x="8" y="-5" style="font-family: 'Open Sans', verdana, arial, sans-serif; font-size: 12px; fill: rgb(42, 63, 95); fill-opacity: 1;"/></g><g class="category" transform="translate(0,515.4239656098871)"><rect class="catrect" pointer-events="none" fill="none" width="16" height="1.5797958087049975" stroke="black" stroke-width="1" stroke-opacity="1"/><rect class="bandrect" stroke-opacity="1" fill="#636efa" fill-opacity="1" width="16" height="1.5797958087049975" y="0" cursor="ns-resize" stroke="black" stroke-width="0.2"/><text class="catlabel" pointer-events="none" text-anchor="start" alignment-baseline="middle" x="21" y="0.7898979043524987" style="text-shadow: white 1px 1px 1px, white -1px -1px 1px, white 1px -1px 1px, white -1px 1px 1px; fill: rgb(42, 63, 95); font-family: 'Open Sans', verdana, arial, sans-serif; font-size: 10px; fill-opacity: 1; white-space: pre;">fan:extractor</text><text class="dimlabel" text-anchor="middle" alignment-baseline="baseline" cursor="ew-resize" x="8" y="-5" style="font-family: 'Open Sans', verdana, arial, sans-serif; font-size: 12px; fill: rgb(42, 63, 95); fill-opacity: 1;"/></g><g class="category" transform="translate(0,525.003761418592)"><rect class="catrect" pointer-events="none" fill="none" width="16" height="0.22568511552928536" stroke="black" stroke-width="1" stroke-opacity="1"/><rect class="bandrect" stroke-opacity="1" fill="#636efa" fill-opacity="1" width="16" height="0.22568511552928536" y="0" cursor="ns-resize" stroke="black" stroke-width="0.2"/><text class="catlabel" pointer-events="none" text-anchor="start" alignment-baseline="middle" x="21" y="0.11284255776464268" style="text-shadow: white 1px 1px 1px, white -1px -1px 1px, white 1px -1px 1px, white -1px 1px 1px; fill: rgb(42, 63, 95); font-family: 'Open Sans', verdana, arial, sans-serif; font-size: 10px; fill-opacity: 1; white-space: pre;">pan</text><text class="dimlabel" text-anchor="middle" alignment-baseline="baseline" cursor="ew-resize" x="8" y="-5" style="font-family: 'Open Sans', verdana, arial, sans-serif; font-size: 12px; fill: rgb(42, 63, 95); fill-opacity: 1;"/></g><g class="category" transform="translate(0,533.2294465341213)"><rect class="catrect" pointer-events="none" fill="none" width="16" height="0.677055346587856" stroke="black" stroke-width="1" stroke-opacity="1"/><rect class="bandrect" stroke-opacity="1" fill="#636efa" fill-opacity="1" width="16" height="0.677055346587856" y="0" cursor="ns-resize" stroke="black" stroke-width="0.2"/><text class="catlabel" pointer-events="none" text-anchor="start" alignment-baseline="middle" x="21" y="0.338527673293928" style="text-shadow: white 1px 1px 1px, white -1px -1px 1px, white 1px -1px 1px, white -1px 1px 1px; fill: rgb(42, 63, 95); font-family: 'Open Sans', verdana, arial, sans-serif; font-size: 10px; fill-opacity: 1; white-space: pre;">scale</text><text class="dimlabel" text-anchor="middle" alignment-baseline="baseline" cursor="ew-resize" x="8" y="-5" style="font-family: 'Open Sans', verdana, arial, sans-serif; font-size: 12px; fill: rgb(42, 63, 95); fill-opacity: 1;"/></g><g class="category" transform="translate(0,541.9065018807091)"><rect class="catrect" pointer-events="none" fill="none" width="16" height="2.031166039763568" stroke="black" stroke-width="1" stroke-opacity="1"/><rect class="bandrect" stroke-opacity="1" fill="#636efa" fill-opacity="1" width="16" height="2.031166039763568" y="0" cursor="ns-resize" stroke="black" stroke-width="0.2"/><text class="catlabel" pointer-events="none" text-anchor="start" alignment-baseline="middle" x="21" y="1.015583019881784" style="text-shadow: white 1px 1px 1px, white -1px -1px 1px, white 1px -1px 1px, white -1px 1px 1px; fill: rgb(42, 63, 95); font-family: 'Open Sans', verdana, arial, sans-serif; font-size: 10px; fill-opacity: 1; white-space: pre;">button</text><text class="dimlabel" text-anchor="middle" alignment-baseline="baseline" cursor="ew-resize" x="8" y="-5" style="font-family: 'Open Sans', verdana, arial, sans-serif; font-size: 12px; fill: rgb(42, 63, 95); fill-opacity: 1;"/></g><g class="category" transform="translate(0,551.9376679204727)"><rect class="catrect" pointer-events="none" fill="none" width="16" height="0.4513702310585707" stroke="black" stroke-width="1" stroke-opacity="1"/><rect class="bandrect" stroke-opacity="1" fill="#636efa" fill-opacity="1" width="16" height="0.4513702310585707" y="0" cursor="ns-resize" stroke="black" stroke-width="0.2"/><text class="catlabel" pointer-events="none" text-anchor="start" alignment-baseline="middle" x="21" y="0.22568511552928536" style="text-shadow: white 1px 1px 1px, white -1px -1px 1px, white 1px -1px 1px, white -1px 1px 1px; fill: rgb(42, 63, 95); font-family: 'Open Sans', verdana, arial, sans-serif; font-size: 10px; fill-opacity: 1; white-space: pre;">toaster</text><text class="dimlabel" text-anchor="middle" alignment-baseline="baseline" cursor="ew-resize" x="8" y="-5" style="font-family: 'Open Sans', verdana, arial, sans-serif; font-size: 12px; fill: rgb(42, 63, 95); fill-opacity: 1;"/></g><g class="category" transform="translate(0,560.3890381515313)"><rect class="catrect" pointer-events="none" fill="none" width="16" height="0.22568511552928536" stroke="black" stroke-width="1" stroke-opacity="1"/><rect class="bandrect" stroke-opacity="1" fill="#636efa" fill-opacity="1" width="16" height="0.22568511552928536" y="0" cursor="ns-resize" stroke="black" stroke-width="0.2"/><text class="catlabel" pointer-events="none" text-anchor="start" alignment-baseline="middle" x="21" y="0.11284255776464268" style="text-shadow: white 1px 1px 1px, white -1px -1px 1px, white 1px -1px 1px, white -1px 1px 1px; fill: rgb(42, 63, 95); font-family: 'Open Sans', verdana, arial, sans-serif; font-size: 10px; fill-opacity: 1; white-space: pre;">dishwasher</text><text class="dimlabel" text-anchor="middle" alignment-baseline="baseline" cursor="ew-resize" x="8" y="-5" style="font-family: 'Open Sans', verdana, arial, sans-serif; font-size: 12px; fill: rgb(42, 63, 95); fill-opacity: 1;"/></g><g class="category" transform="translate(0,568.6147232670605)"><rect class="catrect" pointer-events="none" fill="none" width="16" height="0.22568511552928536" stroke="black" stroke-width="1" stroke-opacity="1"/><rect class="bandrect" stroke-opacity="1" fill="#636efa" fill-opacity="1" width="16" height="0.22568511552928536" y="0" cursor="ns-resize" stroke="black" stroke-width="0.2"/><text class="catlabel" pointer-events="none" text-anchor="start" alignment-baseline="middle" x="21" y="0.11284255776464268" style="text-shadow: white 1px 1px 1px, white -1px -1px 1px, white 1px -1px 1px, white -1px 1px 1px; fill: rgb(42, 63, 95); font-family: 'Open Sans', verdana, arial, sans-serif; font-size: 10px; fill-opacity: 1; white-space: pre;">knob</text><text class="dimlabel" text-anchor="middle" alignment-baseline="baseline" cursor="ew-resize" x="8" y="-5" style="font-family: 'Open Sans', verdana, arial, sans-serif; font-size: 12px; fill: rgb(42, 63, 95); fill-opacity: 1;"/></g><g class="category" transform="translate(0,576.8404083825898)"><rect class="catrect" pointer-events="none" fill="none" width="16" height="0.677055346587856" stroke="black" stroke-width="1" stroke-opacity="1"/><rect class="bandrect" stroke-opacity="1" fill="#636efa" fill-opacity="1" width="16" height="0.677055346587856" y="0" cursor="ns-resize" stroke="black" stroke-width="0.2"/><text class="catlabel" pointer-events="none" text-anchor="start" alignment-baseline="middle" x="21" y="0.338527673293928" style="text-shadow: white 1px 1px 1px, white -1px -1px 1px, white 1px -1px 1px, white -1px 1px 1px; fill: rgb(42, 63, 95); font-family: 'Open Sans', verdana, arial, sans-serif; font-size: 10px; fill-opacity: 1; white-space: pre;">machine:washing</text><text class="dimlabel" text-anchor="middle" alignment-baseline="baseline" cursor="ew-resize" x="8" y="-5" style="font-family: 'Open Sans', verdana, arial, sans-serif; font-size: 12px; fill: rgb(42, 63, 95); fill-opacity: 1;"/></g><g class="category" transform="translate(0,585.5174637291776)"><rect class="catrect" pointer-events="none" fill="none" width="16" height="0.22568511552928536" stroke="black" stroke-width="1" stroke-opacity="1"/><rect class="bandrect" stroke-opacity="1" fill="#636efa" fill-opacity="1" width="16" height="0.22568511552928536" y="0" cursor="ns-resize" stroke="black" stroke-width="0.2"/><text class="catlabel" pointer-events="none" text-anchor="start" alignment-baseline="middle" x="21" y="0.11284255776464268" style="text-shadow: white 1px 1px 1px, white -1px -1px 1px, white 1px -1px 1px, white -1px 1px 1px; fill: rgb(42, 63, 95); font-family: 'Open Sans', verdana, arial, sans-serif; font-size: 10px; fill-opacity: 1; white-space: pre;">rubbish</text><text class="dimlabel" text-anchor="middle" alignment-baseline="baseline" cursor="ew-resize" x="8" y="-5" style="font-family: 'Open Sans', verdana, arial, sans-serif; font-size: 12px; fill: rgb(42, 63, 95); fill-opacity: 1;"/></g><g class="category" transform="translate(0,593.7431488447069)"><rect class="catrect" pointer-events="none" fill="none" width="16" height="0.4513702310585707" stroke="black" stroke-width="1" stroke-opacity="1"/><rect class="bandrect" stroke-opacity="1" fill="#636efa" fill-opacity="1" width="16" height="0.4513702310585707" y="0" cursor="ns-resize" stroke="black" stroke-width="0.2"/><text class="catlabel" pointer-events="none" text-anchor="start" alignment-baseline="middle" x="21" y="0.22568511552928536" style="text-shadow: white 1px 1px 1px, white -1px -1px 1px, white 1px -1px 1px, white -1px 1px 1px; fill: rgb(42, 63, 95); font-family: 'Open Sans', verdana, arial, sans-serif; font-size: 10px; fill-opacity: 1; white-space: pre;">heater</text><text class="dimlabel" text-anchor="middle" alignment-baseline="baseline" cursor="ew-resize" x="8" y="-5" style="font-family: 'Open Sans', verdana, arial, sans-serif; font-size: 12px; fill: rgb(42, 63, 95); fill-opacity: 1;"/></g><g class="category" transform="translate(0,602.1945190757655)"><rect class="catrect" pointer-events="none" fill="none" width="16" height="0.22568511552928536" stroke="black" stroke-width="1" stroke-opacity="1"/><rect class="bandrect" stroke-opacity="1" fill="#636efa" fill-opacity="1" width="16" height="0.22568511552928536" y="0" cursor="ns-resize" stroke="black" stroke-width="0.2"/><text class="catlabel" pointer-events="none" text-anchor="start" alignment-baseline="middle" x="21" y="0.11284255776464268" style="text-shadow: white 1px 1px 1px, white -1px -1px 1px, white 1px -1px 1px, white -1px 1px 1px; fill: rgb(42, 63, 95); font-family: 'Open Sans', verdana, arial, sans-serif; font-size: 10px; fill-opacity: 1; white-space: pre;">phone</text><text class="dimlabel" text-anchor="middle" alignment-baseline="baseline" cursor="ew-resize" x="8" y="-5" style="font-family: 'Open Sans', verdana, arial, sans-serif; font-size: 12px; fill: rgb(42, 63, 95); fill-opacity: 1;"/></g><g class="category" transform="translate(0,610.4202041912947)"><rect class="catrect" pointer-events="none" fill="none" width="16" height="1.1284255776464267" stroke="black" stroke-width="1" stroke-opacity="1"/><rect class="bandrect" stroke-opacity="1" fill="#636efa" fill-opacity="1" width="16" height="1.1284255776464267" y="0" cursor="ns-resize" stroke="black" stroke-width="0.2"/><text class="catlabel" pointer-events="none" text-anchor="start" alignment-baseline="middle" x="21" y="0.5642127888232134" style="text-shadow: white 1px 1px 1px, white -1px -1px 1px, white 1px -1px 1px, white -1px 1px 1px; fill: rgb(42, 63, 95); font-family: 'Open Sans', verdana, arial, sans-serif; font-size: 10px; fill-opacity: 1; white-space: pre;">hoover</text><text class="dimlabel" text-anchor="middle" alignment-baseline="baseline" cursor="ew-resize" x="8" y="-5" style="font-family: 'Open Sans', verdana, arial, sans-serif; font-size: 12px; fill: rgb(42, 63, 95); fill-opacity: 1;"/></g><g class="category" transform="translate(0,619.5486297689412)"><rect class="catrect" pointer-events="none" fill="none" width="16" height="0.4513702310585707" stroke="black" stroke-width="1" stroke-opacity="1"/><rect class="bandrect" stroke-opacity="1" fill="#636efa" fill-opacity="1" width="16" height="0.4513702310585707" y="0" cursor="ns-resize" stroke="black" stroke-width="0.2"/><text class="catlabel" pointer-events="none" text-anchor="start" alignment-baseline="middle" x="21" y="0.22568511552928536" style="text-shadow: white 1px 1px 1px, white -1px -1px 1px, white 1px -1px 1px, white -1px 1px 1px; fill: rgb(42, 63, 95); font-family: 'Open Sans', verdana, arial, sans-serif; font-size: 10px; fill-opacity: 1; white-space: pre;">air</text><text class="dimlabel" text-anchor="middle" alignment-baseline="baseline" cursor="ew-resize" x="8" y="-5" style="font-family: 'Open Sans', verdana, arial, sans-serif; font-size: 12px; fill: rgb(42, 63, 95); fill-opacity: 1;"/></g></g></g></g></g><defs id="topdefs-c439d3"><g class="clips"/></defs><g class="layer-above"><g class="imagelayer"/><g class="shapelayer"/></g><g class="infolayer"><g class="g-gtitle"><text class="gtitle" x="50" y="50" text-anchor="start" dy="0em" style="font-family: 'Open Sans', verdana, arial, sans-serif; font-size: 17px; fill: rgb(42, 63, 95); opacity: 1; font-weight: normal; white-space: pre;">Action co-occurrence in EK-100 training set for verb <tspan style="font-weight:bold">turn-off</tspan></text></g></g></svg>
